<svg width="140" height="48" viewBox="0 0 263 90" fill="none" xmlns="http://www.w3.org/2000/svg">
    <!-- Logo -->
    <path fill-rule="evenodd" clip-rule="evenodd" d="M56.8394 1.88017L70.8716 14.3532C75.6645 18.5687 79.5911 22.0911 84.384 26.3066C86.9826 28.6164 88.1953 31.8502 87.6178 34.7374L83.8066 53.1583C82.5362 59.4526 81.4968 64.5342 80.1686 70.8285C79.4179 74.2354 77.2236 76.8918 74.5095 77.8157L56.6661 83.7635C50.6028 85.7846 45.6367 87.4592 39.5734 89.4803C38.534 89.8268 37.4946 90 36.513 90C37.2059 86.0156 38.0143 81.2227 38.3031 80.4142C38.5918 79.2593 44.2509 71.9256 45.1748 70.7707C46.7917 68.6919 48.524 66.7863 50.3141 64.9961C52.1042 63.0905 53.6634 61.1849 55.3957 59.1638C58.6872 55.2371 62.0365 50.6752 64.173 45.8823C64.9815 44.2077 66.0787 41.8401 67.0603 40.281C67.4645 39.6458 68.0998 39.1838 68.1575 38.4909C67.811 38.1444 67.6378 38.0867 67.4069 37.798C67.9843 35.6036 69.6589 34.6797 70.6983 32.9473C71.1603 31.9656 71.3336 30.4643 71.7378 29.8291C72.3152 29.0206 73.1814 28.5009 73.8166 27.7502C73.8166 26.7685 73.7011 27.115 73.4123 26.5953C73.0081 25.9024 73.4701 26.0178 73.5279 25.3249C73.2392 24.8052 72.7772 24.2855 72.373 23.8235C71.7955 23.3038 71.3335 23.0151 70.4096 23.1306C69.4857 23.1883 66.5407 23.6503 66.021 23.9967C64.9238 24.7474 64.7505 27.1728 64.635 28.7896C64.5195 30.984 65.6167 31.0995 64.0576 33.467L59.2647 40.2233C58.745 40.9162 54.5295 44.6697 53.4324 45.5936L50.6028 48.4809C47.8888 51.2527 48.1776 50.502 44.9438 54.1977L41.9988 56.7963C39.9777 58.4131 37.3214 59.9723 34.5496 60.3187C33.7411 60.4342 33.0482 60.3765 32.2398 60.5497C31.2581 60.8385 31.1426 61.1272 30.3919 61.4737C29.4102 61.9356 29.1792 61.6469 28.1976 61.8201C27.3314 61.9356 26.6384 62.3398 25.7722 61.9934C25.5412 60.723 26.4074 58.2976 26.8117 57.2005C27.1581 57.316 27.9665 58.4709 29.2369 55.5836C29.4679 55.0062 29.6412 54.2555 29.5257 53.6203C29.2369 52.8118 28.8327 52.9273 28.3708 52.4076C28.3708 50.6175 28.4863 48.4809 28.6018 46.6908C28.7173 45.6514 28.1976 44.2655 27.6201 43.457C26.8117 42.3599 27.5624 42.1866 26.5229 41.5514C25.1948 40.8585 24.8483 39.9345 24.1554 39.2993C23.9244 39.0106 23.5202 38.8951 23.2892 38.6641C22.7695 38.0289 23.4047 38.4332 22.5385 37.8557C21.8455 37.4515 21.1526 36.9895 20.2864 37.105C19.5934 37.1628 19.5935 37.336 19.247 37.4515C18.785 37.6247 18.4963 37.567 18.0344 37.6825C17.1682 37.8557 15.5513 39.0684 15.2048 39.2416C13.9344 39.9345 13.8189 39.0684 12.7794 41.3204C12.0865 42.4753 10.8738 44.3232 10.7584 45.7669C10.6429 46.8063 10.5851 47.4992 10.4696 48.4809C10.5274 49.0583 10.4119 51.1949 10.3542 51.4837L9.43024 51.6569C8.50631 54.14 9.71894 55.4681 10.4119 56.623C10.9316 56.623 10.7006 56.5653 10.7584 56.5653C11.0471 56.5075 10.8739 56.4498 11.1626 56.4498C11.7401 57.1427 11.5668 57.8357 11.8555 58.7019C12.1443 59.7413 12.433 60.1455 11.8555 61.3004C10.7006 63.668 11.6823 63.3215 7.58234 62.975C5.84997 62.8018 4.00216 62.5708 2.21204 62.5708C0.421928 60.4342 -0.328751 57.7202 0.133214 55.3526L3.94441 36.9318C5.21481 30.6375 6.31194 25.5559 7.58234 19.2616C8.33304 15.8546 10.5274 13.1983 13.2414 12.2744L31.0849 6.32659C37.1481 4.30549 42.1143 2.63087 48.1775 0.609769C51.2381 -0.545144 54.6451 -0.0254332 56.8394 1.88017Z" fill="#FB9637"/>
    <!-- Maximum -->
    <path d="M135.085 51.3742L135.489 55.7629H137.914L142.303 50.3926L139.647 32.8379H131.447L118.281 55.7629H126.307L128.559 51.3742H135.085ZM134.623 45.7729H131.331L134.219 40.0561L134.623 45.7729Z
             M111.352 43.5208L108.811 55.7629H116.144L120.995 32.8379H114.123L105.981 41.0378L101.362 32.8379H95.1251L90.2744 55.7629H97.6658L100.264 43.5208L104.307 50.5081L111.352 43.5208Z
             M154.892 48.5447L157.259 55.7629H164.997L160.32 43.8673L169.155 32.8379H160.839L156.277 39.0744L154.314 32.8379H146.576L150.849 43.8096L141.09 55.7629H149.406L154.892 48.5447Z
             M167.018 55.7629H174.409L179.26 32.8379H171.869L167.018 55.7629Z
             M199.009 43.5208L196.469 55.7629H203.802L208.653 32.8379H201.781L193.639 41.0378L189.019 32.8379H182.783L177.932 55.7629H185.324L187.864 43.5208L192.022 50.5081L199.009 43.5208Z
             M219.22 49.8728C218.412 49.8728 217.719 49.5841 217.199 49.0067C216.622 48.4292 216.333 47.7363 216.333 46.8701C216.333 46.6391 216.391 46.3504 216.449 46.1194L219.278 32.8379H211.887L209.057 46.1194C208.942 46.7546 208.826 47.3898 208.826 48.1405C208.826 50.5658 209.75 52.5291 211.483 54.0883C213.273 55.6474 215.582 56.3981 218.412 56.3981C221.646 56.3981 224.36 55.4164 226.496 53.5686C228.633 51.663 230.019 49.1799 230.654 46.1194L233.484 32.8379H226.15L223.32 46.1194C223.089 47.1588 222.57 48.0827 221.819 48.7757C221.01 49.5264 220.144 49.8728 219.22 49.8728Z
             M252.886 43.5208L250.288 55.7629H257.679L262.53 32.8379H255.658L247.516 41.0378L242.896 32.8379H236.66L231.809 55.7629H239.201L241.741 43.5208L245.841 50.5081L252.886 43.5208Z" fill="#FB9637"/>
    <!-- Education -->
    <path d="M95.6415 72.5034H88.022L90.3125 61.9869H97.9321L97.4023 64.3519H92.4784L92.12 65.9917H96.9504L96.4362 68.3567H91.6058L91.2163 70.1384H96.1557L95.6415 72.5034Z
             M102.324 72.5034H97.9768L100.267 61.9869H104.552C105.768 61.9869 106.838 62.4126 107.762 63.264C108.697 64.1154 109.165 65.1981 109.165 66.512C109.165 67.0796 109.092 67.6367 108.946 68.1833C108.801 68.7194 108.557 69.2554 108.214 69.7915C107.871 70.3171 107.445 70.7796 106.936 71.179C106.427 71.5784 105.773 71.899 104.973 72.1408C104.184 72.3825 103.301 72.5034 102.324 72.5034ZM102.823 70.1384C103.903 70.1384 104.765 69.8073 105.409 69.1451C106.064 68.4829 106.391 67.6682 106.391 66.7012C106.391 66.039 106.173 65.4819 105.737 65.0299C105.3 64.5779 104.745 64.3519 104.069 64.3519H102.433L101.171 70.1384H102.823Z
             M115.687 72.6926C114.139 72.6926 112.955 72.3562 112.134 71.6835C111.324 71.0003 110.919 70.0858 110.919 68.9401C110.919 68.7404 110.945 68.5091 110.996 68.2463L112.368 61.9869H115.094L113.739 68.1833C113.708 68.2569 113.692 68.404 113.692 68.6248C113.703 69.0978 113.879 69.5024 114.222 69.8388C114.575 70.1646 115.063 70.3276 115.687 70.3276C116.995 70.3276 117.806 69.6128 118.117 68.1833L119.473 61.9869H122.184L120.829 68.2306C120.517 69.6286 119.956 70.7217 119.146 71.5101C118.346 72.2984 117.193 72.6926 115.687 72.6926Z
             M128.277 72.6926C126.771 72.6926 125.514 72.2564 124.506 71.384C123.509 70.501 123.01 69.3448 123.01 67.9152C123.01 66.1178 123.602 64.6515 124.786 63.5163C125.981 62.3811 127.435 61.8135 129.149 61.8135C130.448 61.8135 131.497 62.1236 132.297 62.7437C133.097 63.3534 133.653 64.1207 133.964 65.0457L131.378 65.8971C131.232 65.3715 130.947 64.9616 130.521 64.6673C130.105 64.3624 129.606 64.21 129.025 64.21C128.121 64.21 127.357 64.5569 126.734 65.2506C126.111 65.9339 125.799 66.7643 125.799 67.7418C125.799 68.4671 126.038 69.0767 126.516 69.5708C127.004 70.0543 127.643 70.296 128.433 70.296C128.859 70.296 129.284 70.1857 129.71 69.9649C130.136 69.7337 130.463 69.4394 130.692 69.082L132.78 70.4695C132.209 71.2578 131.518 71.8254 130.708 72.1723C129.897 72.5192 129.087 72.6926 128.277 72.6926Z
             M144.086 72.5034H141.172L140.985 70.9898H136.887L136.061 72.5034H132.882L139.084 61.9869H142.45L144.086 72.5034ZM140.782 68.6248L140.315 64.6673L138.133 68.6248H140.782Z
             M149.508 72.5034H146.828L148.589 64.3519H145.675L146.205 61.9869H154.697L154.183 64.3519H151.269L149.508 72.5034Z
             M157.141 72.5034H154.461L156.752 61.9869H159.432L157.141 72.5034Z
             M165.524 72.6926C164.008 72.6926 162.751 72.2511 161.754 71.3682C160.756 70.4852 160.258 69.3343 160.258 67.9152C160.258 66.2124 160.845 64.7724 162.018 63.5951C163.192 62.4074 164.652 61.8135 166.397 61.8135C167.903 61.8135 169.155 62.2549 170.152 63.1379C171.16 64.0103 171.664 65.1508 171.664 66.5593C171.664 68.2726 171.077 69.7232 169.903 70.9109C168.729 72.0987 167.27 72.6926 165.524 72.6926ZM165.68 70.296C166.584 70.296 167.342 69.9544 167.955 69.2712C168.568 68.5775 168.874 67.7418 168.874 66.7643C168.874 66.0075 168.63 65.3925 168.142 64.9195C167.654 64.4465 167.02 64.21 166.241 64.21C165.337 64.21 164.579 64.5569 163.966 65.2506C163.353 65.9339 163.047 66.7643 163.047 67.7418C163.047 68.4986 163.291 69.1135 163.779 69.5865C164.267 70.0595 164.901 70.296 165.68 70.296Z
             M182.16 72.5034H179.573L176.551 66.2282L175.179 72.5034H172.499L174.79 61.9869H177.548L180.446 67.9625L181.755 61.9869H184.451L182.16 72.5034Z" fill="#151515"/>
</svg>
